<svg width="147" height="50" viewBox="0 0 147 50" fill="none" xmlns="http://www.w3.org/2000/svg">
<path d="M53.0553 27.8222C53.0553 25.8033 54.6703 21.9319 55.5491 19.0295C53.1028 21.2858 49.3738 26.8009 47.754 26.8009C47.279 26.8009 46.4714 26.0646 46.4714 25.2333C46.4714 23.5945 48.9653 17.4619 51.1742 17.4619C52.813 17.4619 54.0718 18.9582 53.8818 19.2432C53.5968 19.647 53.0505 18.697 52.528 18.697C51.2217 18.697 47.8015 22.9484 47.8015 25.5135C47.8015 25.7748 47.9915 25.7986 48.0628 25.7986C49.1791 25.7986 53.763 20.0508 54.5753 19.0295C55.3876 18.0082 55.7154 17.6282 56.0479 17.6282C56.3804 17.6282 57.0929 18.0557 57.0929 18.697C57.0929 19.552 54.4091 26.8959 54.4091 28.7485C54.4091 29.176 54.7416 29.2472 54.8603 29.2472C56.4992 29.2472 63.1067 20.9771 64.3418 19.8133C64.6743 19.5045 64.8168 19.9795 64.6506 20.1695C64.5556 20.2883 61.8242 23.5422 59.3778 26.3211C57.6677 28.2449 56.1239 29.9788 55.2689 29.9788C54.0338 29.9788 53.06 28.6962 53.06 27.8174L53.0553 27.8222Z" fill="black"/>
<path d="M67.9995 36.4912C66.5506 35.0899 67.0494 32.3348 67.5007 30.3872C67.952 28.4396 71.4434 17.2955 72.5122 14.9442C71.5146 16.108 63.8145 26.587 62.1044 26.587C61.3919 26.587 60.5369 25.4469 60.5369 24.8056C60.5369 22.7868 63.9333 17.9891 65.6196 17.9891C66.7122 17.9891 67.8522 18.6066 68.4935 19.0579C70.4411 16.5878 72.2224 14.1414 72.84 13.2151C74.2413 11.1012 76.9489 3.23486 78.3027 3.23486C78.7302 3.23486 79.2053 3.49613 79.2053 3.97115C79.2053 4.68368 76.2839 8.60262 75.4526 10.3127C74.6213 12.0228 68.2512 28.7721 68.8498 34.9521C68.9685 36.2109 69.3248 36.8285 69.491 36.9947C69.7998 37.3035 68.8735 37.351 67.9947 36.496L67.9995 36.4912ZM62.1282 25.5657C63.0307 25.5657 65.6909 22.5493 68.161 19.4616C67.8522 19.2716 67.6385 19.0816 67.2109 19.0816C65.4771 19.0816 61.9619 23.8794 61.9619 25.3519C61.9619 25.4944 62.0332 25.5657 62.1282 25.5657Z" fill="black"/>
<path d="M75.5999 28.2261C75.5999 25.6135 78.1412 18.9109 78.1412 18.7684C78.1412 18.6259 78.2125 18.3884 78.07 17.7946C77.9275 17.2008 80.1363 18.0083 80.1363 19.2672C80.1363 20.526 76.8824 25.5612 76.8824 29.1049C76.8824 30.0549 77.1199 30.4349 77.6662 30.3874C79.6613 30.1737 82.9865 24.9484 85.2713 20.906C85.0813 20.431 84.9626 19.9797 84.9626 19.5997C84.9626 18.7684 85.2951 17.9846 85.8176 17.9846C86.3401 17.9846 87.1477 18.3171 87.1477 18.9109C87.1477 19.1246 86.7676 19.8609 86.1739 20.9297C86.4351 21.8323 86.9339 22.6398 87.9552 22.6398C89.974 22.6398 91.8504 20.2409 92.0879 19.9559C92.3254 19.6709 93.513 19.9559 92.9904 20.5022C92.4679 21.0485 89.8315 23.4474 88.1215 23.4474C87.1714 23.4474 86.2926 22.6636 85.6988 21.7373C83.4662 25.4899 79.305 31.575 77.8325 31.575C76.9537 31.575 75.5999 30.8387 75.5999 28.2261Z" fill="black"/>
<path d="M89.879 27.1096C89.879 24.8532 91.1378 20.768 91.6366 19.7895C91.7079 19.647 91.7079 19.5282 91.6841 19.4095C91.6604 19.267 91.5179 19.2195 91.6129 19.0294C92.1354 17.9844 92.2779 17.7231 92.4441 17.6756C92.5392 17.6519 92.6817 17.6519 92.8242 17.7231C93.513 17.9844 94.4155 18.9344 94.2492 19.2195C92.5392 21.9033 90.1165 27.5609 91.0191 27.9884C92.3016 28.5821 98.0542 22.4781 100.643 19.0294C101.213 18.2694 101.356 19.0769 101.094 19.362C100.833 19.647 94.083 28.4871 91.2328 28.4871C90.5441 28.4871 89.879 28.2021 89.879 27.1096ZM94.0117 14.113C94.1067 13.7804 94.5818 11.7616 94.7243 11.2391C94.8668 10.7165 96.4343 11.7141 96.2206 12.2129C96.0068 12.7116 95.033 14.1605 94.843 14.5642C94.653 14.9442 93.9167 14.4455 94.0117 14.113Z" fill="black"/>
<path d="M92.6341 36.2063C92.6341 34.14 96.7431 30.3398 101.284 27.0099C101.047 26.9624 100.786 26.8911 100.524 26.8199C99.313 26.4399 97.6741 25.3948 97.6741 24.0885C97.6741 21.6421 100.311 19.457 101.569 18.4832C101.878 18.2695 101.997 18.1032 102.021 17.8657C102.044 17.6757 102.211 17.5094 102.567 17.3432C103.636 16.8682 104.918 16.2031 105.465 16.2031C106.106 16.2031 106.581 17.3432 105.987 17.5569C103.778 18.3407 98.6194 22.4259 98.6194 24.4495C98.6194 25.2808 100.187 25.4708 101.517 25.8746C101.85 25.9696 102.158 26.0883 102.443 26.2071C105.982 23.7132 109.597 21.6231 111.64 20.9344C111.806 20.8869 112.02 21.3381 111.877 21.3856C109.882 22.0507 106.51 24.0933 103.18 26.5159C104.486 27.2047 104.89 28.0359 104.89 29.271C104.89 32.2636 98.1397 38.3962 94.8382 38.3962C93.1994 38.3962 92.6294 37.1136 92.6294 36.2111L92.6341 36.2063ZM94.463 37.6124C98.1444 37.1849 103.731 30.5536 103.731 28.0597C103.731 27.5609 103.113 27.3947 102.234 27.2284C97.6504 30.7198 93.3942 34.786 93.3942 36.7574C93.3942 37.2086 93.7267 37.7074 94.463 37.6124Z" fill="black"/>
<path d="M109.573 26.2782C109.597 25.3756 109.811 24.3781 110.12 23.428C109.265 22.7393 108.908 21.813 108.908 20.9342C108.908 17.704 112.115 15.5664 114.632 15.5664C116.034 15.5664 117.198 16.564 117.198 18.0128C117.198 19.7229 116.438 22.0742 115.44 24.1168C117.744 23.8081 120.713 22.2642 122.475 19.3191C122.618 19.0816 123.283 19.3903 123.069 19.6754C121.953 21.2429 118.865 24.3068 115.155 24.6631C113.991 26.7769 112.59 28.4395 111.545 28.4395C110.5 28.4395 109.55 27.2282 109.573 26.2782ZM112.281 23.8556C112.899 24.0456 113.682 24.1643 114.632 24.1643H114.775C115.773 22.2167 116.556 19.7941 116.556 17.704C116.556 16.7302 115.963 16.1127 115.155 16.1127C112.352 16.1127 110.215 20.1979 110.215 21.4804C110.215 21.8367 110.286 22.193 110.452 22.5255C111.331 20.4354 112.59 18.7491 113.136 18.7491C113.991 18.7491 114.395 19.4616 114.181 19.8416C113.587 20.9579 112.851 22.4542 112.281 23.8556ZM112.067 24.4018C111.331 26.2782 110.927 27.8457 111.545 27.8457C112.305 27.8457 113.492 26.5394 114.514 24.6868H114.466C113.54 24.6868 112.732 24.5918 112.067 24.4018Z" fill="black"/>
<path d="M119.815 26.3257C120.076 25.5419 122.831 17.1293 122.831 15.3954C122.831 14.8017 124.518 16.1317 124.328 16.7968C124.138 17.4618 120.884 26.397 121.668 25.2807C122.451 24.1644 125.99 18.7206 127.534 18.7681C128.532 18.7918 128.769 20.5969 129.125 21.4757C129.244 21.737 129.387 21.927 129.529 21.9508C130.717 22.1408 133.994 19.4806 134.493 19.0531C134.992 18.6256 135.253 19.1244 134.802 19.5044C134.351 19.8844 131.311 22.9008 130.289 22.9483C129.149 22.9958 128.484 22.0695 128.128 21.2145C127.843 20.5019 127.748 19.8606 127.392 19.8844C125.61 20.0744 121.715 27.1808 121.335 28.107C120.955 29.0333 119.554 27.1095 119.815 26.3257Z" fill="black"/>
<path d="M126.18 36.2063C126.18 34.14 130.289 30.3398 134.83 27.0099C134.593 26.9624 134.332 26.8911 134.07 26.8199C132.859 26.4399 131.22 25.3948 131.22 24.0885C131.22 21.6421 133.857 19.457 135.115 18.4832C135.424 18.2695 135.543 18.1032 135.567 17.8657C135.59 17.6757 135.757 17.5094 136.113 17.3432C137.182 16.8682 138.464 16.2031 139.011 16.2031C139.652 16.2031 140.127 17.3432 139.533 17.5569C137.324 18.3407 132.166 22.4259 132.166 24.4495C132.166 25.2808 133.733 25.4708 135.063 25.8746C135.396 25.9696 135.704 26.0883 135.99 26.2071C139.528 23.7132 143.143 21.6231 145.186 20.9344C145.352 20.8869 145.566 21.3381 145.423 21.3856C143.428 22.0507 140.056 24.0933 136.726 26.5159C138.032 27.2047 138.436 28.0359 138.436 29.271C138.436 32.2636 131.686 38.3962 128.384 38.3962C126.746 38.3962 126.176 37.1136 126.176 36.2111L126.18 36.2063ZM128.009 37.6124C131.691 37.1849 137.277 30.5536 137.277 28.0597C137.277 27.5609 136.659 27.3947 135.78 27.2284C131.197 30.7198 126.94 34.786 126.94 36.7574C126.94 37.2086 127.273 37.7074 128.009 37.6124Z" fill="black"/>
<path d="M10.6453 44.0438C9.4102 41.2411 10.764 35.5599 14.5642 25.5369C18.3644 15.5092 20.1695 9.57137 20.1695 8.97759C20.1695 8.66883 20.0507 8.62133 19.9082 8.62133C18.2694 8.62133 7.2441 29.1756 3.56267 29.1756C1.35381 29.1756 0.190009 27.5842 0 25.1854C0 18.003 4.89273 5.74269 5.48651 5.69519C6.3653 5.62393 7.88538 6.93024 7.71912 7.45277C7.67162 7.59528 7.2441 7.40527 6.91158 7.64278C6.19905 8.14155 1.75758 17.2192 1.75758 26.7244C1.75758 27.6507 2.16135 28.4108 2.68388 28.4108C6.67407 28.4108 17.2956 7.73778 19.4569 7.73778C20.3357 7.73778 21.3095 8.66408 21.3095 9.47162C21.3095 13.8181 12.1131 34.4673 12.1131 41.8824C12.1131 43.545 12.2556 44.2338 12.9444 45.0413C13.6332 45.8489 11.2105 45.3501 10.6405 44.0438H10.6453Z" fill="black"/>
<path d="M16.2743 36.04C16.1555 35.5887 16.4643 35.6837 17.2005 36.4437C17.4143 36.6575 17.2956 37.0375 17.5806 37.37C17.9368 37.7738 18.6731 38.1776 19.1006 38.3676C21.072 39.1989 21.6183 39.1514 23.1383 39.1039C28.7436 38.8901 41.2414 29.5274 41.2414 20.787C41.2414 19.6944 40.2439 17.9606 37.8213 17.8181C36.9662 17.7706 35.7312 17.9606 34.2111 18.3644C31.5272 20.4545 28.8434 21.8795 26.9385 22.1171C25.751 25.0622 24.7059 27.9123 23.8984 30.3872C23.5184 31.5748 23.2808 32.8811 23.1858 33.8311C23.0908 34.7812 21.5945 33.5936 21.642 32.5248C21.7133 31.2185 25.5847 12.3981 29.2946 6.53156C29.6271 6.00904 31.646 7.1966 31.646 7.57661C31.646 7.95663 31.076 7.93288 30.3872 8.71667C28.6058 10.7118 26.967 16.4643 25.8982 20.8345C26.112 20.692 26.397 20.502 26.7295 20.312C31.4085 10.2605 36.1872 0 41.8162 0C43.7163 0 44.4526 1.71008 44.4526 2.82639C44.4526 7.45786 40.3437 13.0441 35.8262 17.0106C36.42 16.9156 36.99 16.8681 37.5125 16.8681C41.1939 16.8681 42.239 20.597 42.239 22.3783C42.239 27.6748 32.5913 40.2677 23.5183 40.2677C19.3381 40.2677 16.8205 38.2726 16.2695 36.04H16.2743ZM25.3044 23.3996C25.4944 22.9959 25.6845 22.5921 25.8745 22.1646C25.7557 22.1646 25.6607 22.1646 25.5894 22.1171C25.4707 22.5683 25.3757 22.9959 25.3044 23.3996ZM27.3945 21.0483C28.4396 20.6445 29.4371 20.1695 30.3634 19.6469C29.4371 20.0032 28.4633 20.407 27.4658 20.882C27.442 20.9295 27.4183 20.977 27.3945 21.0483ZM27.9646 19.6707C29.5559 18.9107 31.5985 18.0794 33.5698 17.5331C39.8639 12.6404 43.1463 5.53402 43.1463 2.16135C43.1463 1.16381 42.6475 0.783788 41.9825 0.783788C37.541 0.783788 32.0498 10.2415 27.9646 19.6707Z" fill="black"/>
<path d="M144.54 29.5084C144.621 29.2281 145.02 27.5371 145.138 27.1C145.257 26.663 146.573 27.4991 146.393 27.9171C146.212 28.3351 145.395 29.5512 145.238 29.8884C145.077 30.2067 144.464 29.7887 144.54 29.5084Z" fill="black"/>
<path d="M97.4034 41.5026C101.493 41.6499 116.172 40.1773 116.461 41.2746C116.552 41.6214 116.181 42.1296 115.331 42.3529C114.053 42.6854 106.4 42.1486 103.156 42.2721C99.9115 42.3957 68.5172 45.0558 57.5632 48.4189C55.3306 49.103 54.2951 49.6825 54.0338 49.8915C53.5445 50.2858 53.2643 49.559 54.6133 48.4427C56.8222 46.6139 61.8717 45.7303 65.4628 45.1888C69.054 44.6473 89.7793 42.2722 94.2255 42.0441" fill="black"/>
</svg>
