<svg width="176" height="60" viewBox="0 0 176 60" fill="none" xmlns="http://www.w3.org/2000/svg">
<path d="M63.6663 33.3865C63.6663 30.9639 65.6044 26.3182 66.659 22.8353C63.7233 25.5429 59.2486 32.1609 57.3048 32.1609C56.7348 32.1609 55.7657 31.2774 55.7657 30.2798C55.7657 28.3133 58.7584 20.9542 61.409 20.9542C63.3756 20.9542 64.8862 22.7498 64.6582 23.0918C64.3162 23.5763 63.6606 22.4363 63.0336 22.4363C61.466 22.4363 57.3618 27.538 57.3618 30.6162C57.3618 30.9297 57.5898 30.9582 57.6753 30.9582C59.0149 30.9582 64.5157 24.0608 65.4904 22.8353C66.4652 21.6097 66.8585 21.1537 67.2575 21.1537C67.6565 21.1537 68.5116 21.6667 68.5116 22.4363C68.5116 23.4623 65.2909 32.2749 65.2909 34.498C65.2909 35.0111 65.6899 35.0966 65.8324 35.0966C67.799 35.0966 75.7281 25.1724 77.2102 23.7758C77.6092 23.4053 77.7802 23.9753 77.5807 24.2034C77.4667 24.3459 74.189 28.2506 71.2534 31.5852C69.2013 33.8938 67.3487 35.9744 66.3227 35.9744C64.8406 35.9744 63.672 34.4353 63.672 33.3808L63.6663 33.3865Z" fill="white"/>
<path d="M81.5994 43.7895C79.8608 42.1079 80.4594 38.8018 81.0009 36.4647C81.5424 34.1275 85.7321 20.7547 87.0147 17.9331C85.8176 19.3296 76.5775 31.9044 74.5254 31.9044C73.6703 31.9044 72.6443 30.5364 72.6443 29.7668C72.6443 27.3442 76.72 21.5869 78.7436 21.5869C80.0546 21.5869 81.4227 22.328 82.1922 22.8695C84.5294 19.9054 86.667 16.9697 87.408 15.8582C89.0896 13.3215 92.3387 3.88189 93.9633 3.88189C94.4763 3.88189 95.0464 4.1954 95.0464 4.76543C95.0464 5.62047 91.5407 10.3232 90.5431 12.3753C89.5456 14.4274 81.9015 34.5266 82.6198 41.9426C82.7623 43.4532 83.1898 44.1942 83.3893 44.3937C83.7598 44.7642 82.6483 44.8213 81.5937 43.7952L81.5994 43.7895ZM74.5539 30.6789C75.6369 30.6789 78.8291 27.0592 81.7932 23.354C81.4227 23.126 81.1662 22.898 80.6532 22.898C78.5726 22.898 74.3544 28.6553 74.3544 30.4224C74.3544 30.5934 74.4399 30.6789 74.5539 30.6789Z" fill="white"/>
<path d="M90.7198 33.871C90.7198 30.7359 93.7695 22.6928 93.7695 22.5218C93.7695 22.3508 93.855 22.0658 93.684 21.3532C93.513 20.6407 96.1636 21.6097 96.1636 23.1203C96.1636 24.6309 92.2589 30.6732 92.2589 34.9256C92.2589 36.0656 92.5439 36.5216 93.1995 36.4646C95.5936 36.2081 99.5838 29.9378 102.326 25.0869C102.098 24.5169 101.955 23.9753 101.955 23.5193C101.955 22.5218 102.354 21.5812 102.981 21.5812C103.608 21.5812 104.577 21.9802 104.577 22.6928C104.577 22.9493 104.121 23.8328 103.409 25.1154C103.722 26.1985 104.321 27.1675 105.546 27.1675C107.969 27.1675 110.22 24.2889 110.505 23.9468C110.791 23.6048 112.216 23.9468 111.589 24.6024C110.962 25.2579 107.798 28.1365 105.746 28.1365C104.606 28.1365 103.551 27.196 102.839 26.0844C100.16 30.5877 95.1661 37.8897 93.399 37.8897C92.3444 37.8897 90.7198 37.0062 90.7198 33.871Z" fill="white"/>
<path d="M107.855 32.5315C107.855 29.8238 109.365 24.9216 109.964 23.7473C110.049 23.5763 110.049 23.4338 110.021 23.2913C109.992 23.1203 109.821 23.0633 109.935 22.8353C110.562 21.5812 110.733 21.2677 110.933 21.2107C111.047 21.1822 111.218 21.1822 111.389 21.2677C112.216 21.5812 113.299 22.7213 113.099 23.0633C111.047 26.284 108.14 33.073 109.223 33.586C110.762 34.2985 117.665 26.9737 120.772 22.8353C121.456 21.9233 121.627 22.8923 121.313 23.2343C121 23.5763 112.9 34.1845 109.479 34.1845C108.653 34.1845 107.855 33.8425 107.855 32.5315ZM112.814 16.9355C112.928 16.5365 113.498 14.1139 113.669 13.4868C113.84 12.8598 115.721 14.0569 115.465 14.6554C115.208 15.2539 114.04 16.9925 113.812 17.477C113.584 17.9331 112.7 17.3345 112.814 16.9355Z" fill="white"/>
<path d="M111.161 43.4475C111.161 40.9679 116.092 36.4076 121.541 32.4118C121.256 32.3547 120.943 32.2692 120.629 32.1837C119.176 31.7277 117.209 30.4737 117.209 28.9061C117.209 25.9704 120.373 23.3483 121.883 22.1798C122.254 21.9232 122.396 21.7237 122.425 21.4387C122.453 21.2107 122.653 21.0112 123.08 20.8117C124.363 20.2417 125.902 19.4436 126.557 19.4436C127.327 19.4436 127.897 20.8117 127.184 21.0682C124.534 22.0088 118.343 26.911 118.343 29.3393C118.343 30.3369 120.224 30.5649 121.82 31.0494C122.22 31.1634 122.59 31.3059 122.932 31.4484C127.179 28.4558 131.517 25.9476 133.968 25.1211C134.167 25.0641 134.424 25.6056 134.253 25.6626C131.859 26.4607 127.811 28.9118 123.816 31.8189C125.383 32.6455 125.868 33.643 125.868 35.1251C125.868 38.7163 117.768 46.0753 113.806 46.0753C111.839 46.0753 111.155 44.5362 111.155 43.4532L111.161 43.4475ZM113.356 45.1348C117.773 44.6217 124.477 36.6642 124.477 33.6715C124.477 33.073 123.736 32.8735 122.681 32.674C117.18 36.8637 112.073 41.7431 112.073 44.1087C112.073 44.6502 112.472 45.2488 113.356 45.1348Z" fill="white"/>
<path d="M131.488 31.5339C131.517 30.4509 131.773 29.2538 132.144 28.1137C131.118 27.2872 130.69 26.1757 130.69 25.1211C130.69 21.2449 134.538 18.6798 137.559 18.6798C139.241 18.6798 140.637 19.8769 140.637 21.6154C140.637 23.6675 139.725 26.4892 138.528 28.9403C141.293 28.5698 144.855 26.7172 146.97 23.183C147.141 22.898 147.939 23.2685 147.683 23.6105C146.343 25.4916 142.638 29.1683 138.186 29.5958C136.789 32.1324 135.108 34.1275 133.854 34.1275C132.6 34.1275 131.46 32.674 131.488 31.5339ZM134.737 28.6268C135.478 28.8548 136.419 28.9973 137.559 28.9973H137.73C138.927 26.6602 139.868 23.753 139.868 21.2449C139.868 20.0764 139.155 19.3353 138.186 19.3353C134.823 19.3353 132.258 24.2376 132.258 25.7766C132.258 26.2042 132.343 26.6317 132.543 27.0307C133.597 24.5226 135.108 22.499 135.763 22.499C136.789 22.499 137.274 23.354 137.017 23.81C136.305 25.1496 135.421 26.9452 134.737 28.6268ZM134.481 29.2823C133.597 31.5339 133.113 33.415 133.854 33.415C134.766 33.415 136.191 31.8474 137.417 29.6243H137.36C136.248 29.6243 135.279 29.5103 134.481 29.2823Z" fill="white"/>
<path d="M143.778 31.5909C144.091 30.6504 147.398 20.5552 147.398 18.4746C147.398 17.7621 149.421 19.3581 149.193 20.1562C148.965 20.9542 145.061 31.6764 146.001 30.3369C146.942 28.9973 151.188 22.4648 153.041 22.5218C154.238 22.5503 154.523 24.7164 154.95 25.7709C155.093 26.0844 155.264 26.3125 155.435 26.341C156.86 26.569 160.793 23.3768 161.392 22.8638C161.99 22.3508 162.304 22.9493 161.762 23.4053C161.221 23.8613 157.573 27.481 156.347 27.538C154.979 27.595 154.181 26.4835 153.753 25.4574C153.411 24.6024 153.297 23.8328 152.87 23.8613C150.732 24.0894 146.058 32.617 145.602 33.7285C145.146 34.8401 143.464 32.5315 143.778 31.5909Z" fill="white"/>
<path d="M151.416 43.4475C151.416 40.9679 156.347 36.4076 161.797 32.4118C161.512 32.3547 161.198 32.2692 160.884 32.1837C159.431 31.7277 157.464 30.4737 157.464 28.9061C157.464 25.9704 160.628 23.3483 162.139 22.1798C162.509 21.9232 162.652 21.7237 162.68 21.4387C162.709 21.2107 162.908 21.0112 163.336 20.8117C164.618 20.2417 166.157 19.4436 166.813 19.4436C167.582 19.4436 168.152 20.8117 167.44 21.0682C164.789 22.0088 158.599 26.911 158.599 29.3393C158.599 30.3369 160.48 30.5649 162.076 31.0494C162.475 31.1634 162.845 31.3059 163.187 31.4484C167.434 28.4558 171.772 25.9476 174.223 25.1211C174.423 25.0641 174.679 25.6056 174.508 25.6626C172.114 26.4607 168.067 28.9118 164.071 31.8189C165.639 32.6455 166.123 33.643 166.123 35.1251C166.123 38.7163 158.023 46.0753 154.061 46.0753C152.095 46.0753 151.411 44.5362 151.411 43.4532L151.416 43.4475ZM153.611 45.1348C158.029 44.6217 164.732 36.6642 164.732 33.6715C164.732 33.073 163.991 32.8735 162.937 32.674C157.436 36.8637 152.328 41.7431 152.328 44.1087C152.328 44.6502 152.727 45.2488 153.611 45.1348Z" fill="white"/>
<path d="M12.7743 52.8529C11.2922 49.4898 12.9168 42.6722 17.477 30.6447C22.0373 18.6114 24.2034 11.4861 24.2034 10.7735C24.2034 10.403 24.0609 10.346 23.8898 10.346C21.9233 10.346 8.69292 35.0111 4.2752 35.0111C1.62458 35.0111 0.228011 33.1015 0 30.2228C0 21.604 5.87128 6.89163 6.58382 6.83463C7.63837 6.74912 9.46245 8.3167 9.26294 8.94373C9.20594 9.11474 8.69292 8.88673 8.2939 9.17174C7.43886 9.77027 2.1091 20.6635 2.1091 32.0697C2.1091 33.1813 2.59362 34.0933 3.22065 34.0933C8.00888 34.0933 20.7547 9.28575 23.3483 9.28575C24.4029 9.28575 25.5714 10.3973 25.5714 11.3663C25.5714 16.5821 14.5357 41.3612 14.5357 50.2593C14.5357 52.2544 14.7067 53.0809 15.5332 54.05C16.3598 55.019 13.4526 54.4205 12.7686 52.8529H12.7743Z" fill="white"/>
<path d="M19.5291 43.248C19.3866 42.7064 19.7571 42.8204 20.6406 43.7325C20.8971 43.989 20.7546 44.445 21.0967 44.844C21.5242 45.3286 22.4077 45.8131 22.9207 46.0411C25.2864 47.0387 25.9419 46.9816 27.766 46.9246C34.4923 46.6681 49.4897 35.4329 49.4897 24.9444C49.4897 23.6333 48.2927 21.5527 45.3855 21.3817C44.3595 21.3247 42.8774 21.5527 41.0533 22.0373C37.8327 24.5454 34.612 26.2555 32.3262 26.5405C30.9011 30.0746 29.6471 33.4948 28.678 36.4646C28.222 37.8897 27.937 39.4573 27.823 40.5973C27.709 41.7374 25.9134 40.3123 25.9704 39.0298C26.0559 37.4622 30.7016 14.8777 35.1535 7.83788C35.5525 7.21084 37.9752 8.63591 37.9752 9.09194C37.9752 9.54796 37.2911 9.51946 36.4646 10.46C34.327 12.8541 32.3604 19.7571 31.0778 25.0014C31.3343 24.8304 31.6764 24.6024 32.0754 24.3744C37.6901 12.3126 43.4246 0 50.1794 0C52.4596 0 53.3431 2.0521 53.3431 3.39166C53.3431 8.94943 48.4124 15.6529 42.9914 20.4127C43.7039 20.2987 44.388 20.2417 45.015 20.2417C49.4327 20.2417 50.6868 24.7164 50.6868 26.854C50.6868 33.2098 39.1095 48.3212 28.222 48.3212C23.2058 48.3212 20.1846 45.9271 19.5234 43.248H19.5291ZM30.3653 28.0795C30.5933 27.595 30.8213 27.1105 31.0493 26.5975C30.9068 26.5975 30.7928 26.5975 30.7073 26.5405C30.5648 27.082 30.4508 27.595 30.3653 28.0795ZM32.8734 25.2579C34.1275 24.7734 35.3245 24.2034 36.4361 23.5763C35.3245 24.0038 34.156 24.4884 32.9589 25.0584C32.9304 25.1154 32.9019 25.1724 32.8734 25.2579ZM33.5575 23.6048C35.467 22.6928 37.9182 21.6952 40.2838 21.0397C47.8366 15.1684 51.7755 6.64082 51.7755 2.59362C51.7755 1.39657 51.177 0.940545 50.379 0.940545C45.0492 0.940545 38.4597 12.2898 33.5575 23.6048Z" fill="white"/>
<path d="M173.448 35.4101C173.545 35.0738 174.024 33.0445 174.166 32.5201C174.309 31.9956 175.888 32.9989 175.671 33.5005C175.454 34.0021 174.474 35.4614 174.286 35.8661C174.092 36.248 173.357 35.7464 173.448 35.4101Z" fill="white"/>
<path d="M116.884 49.8033C121.792 49.98 139.406 48.2129 139.754 49.5297C139.862 49.9458 139.417 50.5557 138.397 50.8236C136.864 51.2227 127.68 50.5785 123.787 50.7267C119.894 50.8749 82.2207 54.0671 69.0759 58.1029C66.3968 58.9237 65.1541 59.6192 64.8406 59.87C64.2535 60.3431 63.9172 59.4709 65.536 58.1314C68.1867 55.9368 74.2461 54.8765 78.5555 54.2267C82.8649 53.5769 107.735 50.7267 113.071 50.4531" fill="white"/>
</svg>
