<svg width="36" height="622" viewBox="0 0 36 622" fill="none" xmlns="http://www.w3.org/2000/svg">
<path d="M19.9932 1.00509C19.995 0.452804 19.5488 0.00357101 18.9966 0.00169569C18.4443 -0.000179627 17.995 0.446013 17.9932 0.998294L19.9932 1.00509ZM17.9932 0.998294L16.0068 585.995L18.0068 586.002L19.9932 1.00509L17.9932 0.998294Z" fill="white"/>
<g clip-path="url(#clip0_16_121)">
<path fill-rule="evenodd" clip-rule="evenodd" d="M17 585C17.6213 585 18.125 585.504 18.125 586.125L18.125 610.409L21.8295 606.705C22.2688 606.265 22.9812 606.265 23.4205 606.705C23.8598 607.144 23.8598 607.856 23.4205 608.295L17.7955 613.92C17.3562 614.36 16.6438 614.36 16.2045 613.92L10.5795 608.295C10.1402 607.856 10.1402 607.144 10.5795 606.705C11.0188 606.265 11.7312 606.265 12.1705 606.705L15.875 610.409L15.875 586.125C15.875 585.504 16.3787 585 17 585Z" fill="white"/>
</g>
<defs>
<clipPath id="clip0_16_121">
<rect width="36" height="36" fill="white" transform="translate(0 586)"/>
</clipPath>
</defs>
</svg>
